<svg xmlns="http://www.w3.org/2000/svg" viewBox="0 0 5000 1100">
  <defs>
    <style>
      .a {
        fill: #52a841;
      }

      .b {
        fill: none;
        stroke: #009245;
        stroke-linecap: round;
        stroke-miterlimit: 10;
        stroke-width: 5px;
      }

      .c {
        fill: #756a58;
      }

      .d {
        fill: #63553c;
      }

      .e {
        fill: #706248;
      }
    </style>
  </defs>
  <title>ground</title>
  <g>
    <path class="a" d="M2,72c310,64,1286-22,1576,80,168.8,59.4,561.7,229.1,655,206,190-47,461,52,583,128v614H2Z"/>
    <line class="b" x1="2353.5" y1="338.5" x2="2354.5" y2="355.5"/>
    <line class="b" x1="2301.5" y1="338.5" x2="2303.5" y2="347.5"/>
    <line class="b" x1="2291.5" y1="342.5" x2="2303.5" y2="347.5"/>
    <line class="b" x1="2323.5" y1="337.5" x2="2303.5" y2="347.5"/>
    <line class="b" x1="2354.5" y1="355.5" x2="2369.5" y2="337.5"/>
    <line class="b" x1="2392.5" y1="347.5" x2="2401.5" y2="337.5"/>
    <line class="b" x1="2414.5" y1="355.5" x2="2420.5" y2="345.5"/>
    <line class="b" x1="2052.5" y1="314.5" x2="2042.5" y2="322.5"/>
    <line class="b" x1="2004.5" y1="298.5" x2="2004.5" y2="314.5"/>
    <line class="b" x1="1948.5" y1="281.5" x2="1951.5" y2="292.5"/>
    <line class="b" x1="1813.5" y1="228.5" x2="1808.5" y2="239.5"/>
    <line class="b" x1="1778.5" y1="216.5" x2="1778.5" y2="232.5"/>
    <line class="b" x1="1301.5" y1="96.5" x2="1301.5" y2="108.5"/>
    <line class="b" x1="1360.5" y1="96.5" x2="1363.5" y2="113.5"/>
    <line class="b" x1="1373.5" y1="102.5" x2="1363.5" y2="113.5"/>
    <line class="b" x1="1408.5" y1="111.5" x2="1408.5" y2="118.5"/>
    <line class="b" x1="1444.5" y1="111.5" x2="1444.5" y2="122.5"/>
    <line class="b" x1="1604.5" y1="148.5" x2="1599.5" y2="159.5"/>
    <line class="b" x1="1645.5" y1="179.5" x2="1658.5" y2="182.5"/>
    <line class="b" x1="1712.5" y1="202.5" x2="1704.5" y2="194.5"/>
    <line class="b" x1="428.5" y1="88.5" x2="430.5" y2="98.5"/>
    <line class="b" x1="458.5" y1="81.5" x2="458.5" y2="98.5"/>
    <line class="b" x1="487.5" y1="89.5" x2="487.5" y2="102.5"/>
    <line class="b" x1="371.5" y1="93.5" x2="376.5" y2="98.5"/>
    <line class="b" x1="577.5" y1="89.5" x2="581.5" y2="98.5"/>
    <line class="b" x1="638.5" y1="89.5" x2="639.5" y2="104.5"/>
    <line class="b" x1="716.5" y1="89.5" x2="718.5" y2="98.5"/>
    <line class="b" x1="859.5" y1="89.5" x2="860.5" y2="98.5"/>
    <line class="b" x1="1159.5" y1="93.5" x2="1159.5" y2="104.5"/>
    <line class="b" x1="283.5" y1="89.5" x2="286.5" y2="95.5"/>
    <line class="b" x1="269.5" y1="89.5" x2="270.5" y2="98.5"/>
    <line class="b" x1="259.5" y1="92.5" x2="260.5" y2="96.5"/>
    <line class="b" x1="154.5" y1="92.5" x2="154.5" y2="81.5"/>
    <line class="b" x1="1213.5" y1="108.5" x2="1222.5" y2="104.5"/>
    <line class="b" x1="1357.5" y1="116.5" x2="1350.5" y2="108.5"/>
    <line class="b" x1="1395.5" y1="122.5" x2="1392.5" y2="114.5"/>
    <line class="b" x1="1591.5" y1="156.5" x2="1589.5" y2="153.5"/>
    <line class="b" x1="1577.5" y1="145.5" x2="1579.5" y2="158.5"/>
    <line class="b" x1="2239.5" y1="361.5" x2="2228.5" y2="350.5"/>
    <line class="b" x1="2557.5" y1="377.5" x2="2567.5" y2="371.5"/>
    <line class="b" x1="2548.5" y1="377.5" x2="2548.5" y2="367.5"/>
    <line class="b" x1="2538.5" y1="374.5" x2="2534.5" y2="367.5"/>
  </g>
  <g>
    <path class="c" d="M2,82c380,59,1195-30,1585,90,171.1,52.6,487.8,208.8,676,196,294-20,450.2,56.2,711,156C4093,952,5001,840,5001,840v260H2Z"/>
    <g>
      <path class="d" d="M924,188c-28,11-37,72-37,72-3.5,7.1,56.2,24.6,75,16,21.7-9.9,62.6-52.8,53-60,0,0-27-36-41-36S924,188,924,188Z"/>
      <path class="e" d="M924,188c-56,45-14,65-14,65,18,3,33.2-1.4,52-10,21.7-9.9,62.6-19.8,53-27,0,0-27-36-41-36S924,188,924,188Z"/>
    </g>
    <g>
      <path class="d" d="M2778.1,700c56.7-7.3,127.6,86.1,127.6,86.1,12.4,8.7-71.2,92.5-110.3,95.4-45.3,3.3-152.8-30.6-143.3-51.4,0,0,12-84.8,35.3-97.6S2778.1,700,2778.1,700Z"/>
      <path class="e" d="M2778.1,700c134.5,23.7,82.9,95.5,82.9,95.5-27.3,21.5-56.7,28.2-95.9,31-45.2,3.3-122.5,24.4-113,3.6,0,0,12-84.8,35.3-97.6S2778.1,700,2778.1,700Z"/>
    </g>
    <g>
      <path class="d" d="M2071.2,613.8c29.8-3.9,67.1,45.2,67.1,45.2,6.5,4.6-37.5,48.7-58,50.2-23.8,1.7-80.4-16.1-75.4-27.1,0,0,6.3-44.5,18.6-51.3S2071.2,613.8,2071.2,613.8Z"/>
      <path class="e" d="M2071.2,613.8c70.7,12.4,43.5,50.2,43.5,50.2-14.3,11.3-29.8,14.8-50.3,16.3-23.8,1.7-64.5,12.8-59.5,1.8,0,0,6.3-44.5,18.6-51.3S2071.2,613.8,2071.2,613.8Z"/>
    </g>
    <g>
      <path class="d" d="M2409.7,495.8c-20.2.4-40.3,36.7-40.3,36.7-3.8,3.7,29.7,28.7,43.5,27.7,16-1.2,51.9-18.5,47.5-25.3,0,0-8.5-29.1-17.3-32.4S2409.7,495.8,2409.7,495.8Z"/>
      <path class="e" d="M2409.7,495.8c-45.9,15.2-24.1,37.7-24.1,37.7,10.6,6.1,21.3,6.9,35.1,5.9,16-1.1,44.1,2.3,39.7-4.5,0,0-8.5-29.1-17.3-32.4S2409.7,495.8,2409.7,495.8Z"/>
    </g>
    <g>
      <path class="d" d="M1727.7,469.8c-20.2.4-40.3,36.7-40.3,36.7-3.8,3.7,29.7,28.7,43.5,27.7,16-1.2,51.9-18.5,47.5-25.3,0,0-8.5-29.1-17.3-32.4S1727.7,469.8,1727.7,469.8Z"/>
      <path class="e" d="M1727.7,469.8c-45.9,15.2-24.1,37.7-24.1,37.7,10.6,6.1,21.3,6.9,35.1,5.9,16-1.1,44.1,2.3,39.7-4.5,0,0-8.5-29.1-17.3-32.4S1727.7,469.8,1727.7,469.8Z"/>
    </g>
    <g>
      <path class="d" d="M1305.1,292.2c14.2.2,28.1,25.6,28.1,25.6,2.7,2.5-20.7,20-30.3,19.3-11.2-.8-36.3-12.9-33.2-17.7,0,0,6-20.3,12.1-22.6S1305.1,292.2,1305.1,292.2Z"/>
      <path class="e" d="M1305.1,292.2c32.1,10.6,16.9,26.3,16.9,26.3-7.5,4.2-14.9,4.8-24.6,4.1s-30.8,1.6-27.7-3.2c0,0,6-20.3,12.1-22.6S1305.1,292.2,1305.1,292.2Z"/>
    </g>
    <g>
      <path class="d" d="M1496.5,266.9c24.6.4,49,44.6,49,44.6,4.7,4.4-36.1,34.9-52.9,33.7-19.5-1.5-63.1-22.6-57.8-30.9,0,0,10.4-35.3,21.1-39.3S1496.5,266.9,1496.5,266.9Z"/>
      <path class="e" d="M1496.5,266.9c55.8,18.4,29.3,45.8,29.3,45.8-12.9,7.4-25.8,8.4-42.7,7.2-19.4-1.4-53.6,2.7-48.3-5.6,0,0,10.4-35.3,21.1-39.3S1496.5,266.9,1496.5,266.9Z"/>
    </g>
    <g>
      <path class="d" d="M2687.7,546.1c13.9.2,27.6,25.1,27.6,25.1,2.7,2.5-20.3,19.7-29.8,19s-35.5-12.7-32.5-17.4c0,0,5.8-19.9,11.9-22.1S2687.7,546.1,2687.7,546.1Z"/>
      <path class="e" d="M2687.7,546.1c31.5,10.4,16.6,25.8,16.6,25.8-7.3,4.2-14.6,4.7-24.1,4s-30.2,1.6-27.2-3.1c0,0,5.8-19.9,11.9-22.1S2687.7,546.1,2687.7,546.1Z"/>
    </g>
    <ellipse class="e" cx="2204" cy="491" rx="15" ry="5"/>
    <ellipse class="e" cx="2453" cy="453" rx="15" ry="5"/>
    <ellipse class="e" cx="1876" cy="383" rx="15" ry="5"/>
    <ellipse class="e" cx="1646" cy="266" rx="15" ry="5"/>
    <ellipse class="e" cx="1698" cy="367" rx="15" ry="5"/>
    <ellipse class="e" cx="1175" cy="275" rx="15" ry="5"/>
    <ellipse class="e" cx="3023" cy="662" rx="15" ry="5"/>
    <ellipse class="e" cx="2895" cy="588" rx="15" ry="5"/>
    <ellipse class="e" cx="2038" cy="487" rx="15" ry="5"/>
    <ellipse class="e" cx="3295" cy="712" rx="15" ry="5"/>
    <ellipse class="e" cx="1331" cy="190" rx="15" ry="5"/>
    <circle class="d" cx="1984.5" cy="402.5" r="4.5"/>
    <circle class="d" cx="2255.5" cy="410.5" r="4.5"/>
    <circle class="d" cx="2159.5" cy="425.5" r="4.5"/>
    <circle class="d" cx="1526.5" cy="228.5" r="4.5"/>
    <circle class="d" cx="1159.5" cy="189.5" r="4.5"/>
    <circle class="d" cx="1227.5" cy="187.5" r="4.5"/>
    <circle class="d" cx="2717.5" cy="489.5" r="4.5"/>
    <circle class="d" cx="2880.5" cy="650.5" r="4.5"/>
    <circle class="d" cx="2581.5" cy="489.5" r="4.5"/>
  </g>
</svg>
