<svg xmlns="http://www.w3.org/2000/svg" viewBox="0 0 2318 646">
  <defs>
     <linearGradient id="gradient" x1="0" x2="0" y1="0" y2="1">
        <stop offset="0%" stop-color="#94cdf3"/>
        <stop offset="50%" stop-color="#101753"/>
      </linearGradient>
  </defs>
  <title>Ocean</title>
  <path class="a" fill="url(#gradient)" d="M2296.7,0h-1.1c-2.6,6.3-11.9,11-22.9,11s-20.3-4.7-22.9-11h-1.1c-2.6,6.3-11.8,11-22.9,11s-20.3-4.7-22.9-11h-1c-2.6,6.3-11.9,11-22.9,11s-20.4-4.7-22.9-11H2155c-2.6,6.3-11.9,11-22.9,11s-20.3-4.7-22.9-11h-1.1c-2.6,6.3-11.8,11-22.9,11s-20.3-4.7-22.9-11h-1.1c-2.5,6.3-11.8,11-22.9,11S2018,6.3,2015.5,0h-1.1c-2.6,6.3-11.9,11-22.9,11s-20.3-4.7-22.9-11h-1.1c-2.6,6.3-11.8,11-22.9,11s-20.3-4.7-22.9-11h-1.1c-2.5,6.3-11.8,11-22.9,11s-20.3-4.7-22.9-11h-1c-2.6,6.3-11.9,11-22.9,11S1830.5,6.3,1828,0h-1.1c-2.6,6.3-11.9,11-22.9,11s-20.3-4.7-22.9-11H1780c-2.6,6.3-11.8,11-22.9,11s-20.3-4.7-22.9-11h-1.1c-2.5,6.3-11.8,11-22.8,11s-20.4-4.7-22.9-11h-1.1c-2.6,6.3-11.9,11-22.9,11s-20.3-4.7-22.9-11h-1.1c-2.6,6.3-11.8,11-22.9,11s-20.3-4.7-22.9-11h-1.1c-2.5,6.3-11.8,11-22.9,11s-20.3-4.7-22.9-11h-1c-2.6,6.3-11.9,11-22.9,11s-20.4-4.7-22.9-11h-1.1c-2.6,6.3-11.9,11-22.9,11S1455.6,6.3,1453,0h-1.1c-2.6,6.3-11.8,11-22.9,11s-20.3-4.7-22.9-11H1405c-2.5,6.3-11.8,11-22.8,11s-20.4-4.7-22.9-11h-1.1c-2.6,6.3-11.9,11-22.9,11S1315,6.3,1312.4,0h-1.1c-2.6,6.3-11.8,11-22.9,11s-20.3-4.7-22.9-11h-1.1c-2.5,6.3-11.8,11-22.9,11s-20.3-4.7-22.9-11h-1c-2.6,6.3-11.9,11-22.9,11s-20.3-4.7-22.9-11h-1.1c-2.6,6.3-11.9,11-22.9,11s-20.3-4.7-22.9-11h-1.1c-2.6,6.3-11.8,11-22.9,11S1080.6,6.3,1078,0h-1.1c-2.5,6.3-11.8,11-22.8,11s-20.4-4.7-22.9-11h-1.1c-2.6,6.3-11.9,11-22.9,11S986.9,6.3,984.3,0h-1.1c-2.6,6.3-11.8,11-22.9,11S940,6.3,937.4,0h-1.1c-2.5,6.3-11.8,11-22.9,11S893.1,6.3,890.5,0h-1c-2.6,6.3-11.9,11-22.9,11S846.3,6.3,843.7,0h-1.1c-2.6,6.3-11.9,11-22.9,11S799.4,6.3,796.8,0h-1.1c-2.6,6.3-11.8,11-22.9,11S752.5,6.3,749.9,0h-1C746.3,6.3,737,11,726,11S705.6,6.3,703.1,0H702c-2.6,6.3-11.9,11-22.9,11S658.8,6.3,656.2,0h-1.1c-2.6,6.3-11.8,11-22.9,11S611.9,6.3,609.3,0h-1.1c-2.5,6.3-11.8,11-22.9,11S565,6.3,562.5,0h-1.1c-2.6,6.3-11.9,11-22.9,11S518.2,6.3,515.6,0h-1.1c-2.6,6.3-11.8,11-22.9,11S471.3,6.3,468.7,0h-1.1c-2.5,6.3-11.8,11-22.9,11S424.4,6.3,421.8,0h-1c-2.6,6.3-11.9,11-22.9,11S377.5,6.3,375,0h-1.1C371.3,6.3,362,11,351,11S330.7,6.3,328.1,0H327c-2.6,6.3-11.8,11-22.9,11S283.8,6.3,281.2,0h-1.1c-2.5,6.3-11.8,11-22.9,11S236.9,6.3,234.4,0h-1.1c-2.6,6.3-11.9,11-22.9,11S190.1,6.3,187.5,0h-1.1c-2.6,6.3-11.8,11-22.9,11S143.2,6.3,140.6,0h-1.1c-2.5,6.3-11.8,11-22.9,11S96.3,6.3,93.7,0h-1C90.1,6.3,80.8,11,69.8,11S49.4,6.3,46.9,0H45.8C43.2,6.3,33.9,11,22.9,11S2.6,6.3,0,0V646H2318V11C2307.7,10.5,2299.1,6,2296.7,0Z"/>
</svg>
