<svg height="300" xmlns="http://www.w3.org/2000/svg" viewBox="0 0 2500 344.4"><defs><style>.highlight{fill:#fff}.cloud{fill:#ccc}</style></defs><title>clouds</title><path class="highlight" d="M1110 161.43c1-4 6.79-8.72 12-1-7.21-59.72 110.3-33.63 103.38 8.73 14.21-12.82 33.62 11.27 25.62 25.27 3.35-1.68 4-4 8.47-3.73-16.78-41 101.44-62.66 96.48-3.87 12-15.4 36-7.4 34 13.6 13-11 35.62 5.81 31.58 18.89-5.87 19-18.78 14.71-32.32 8.35-7.36 6.63-516.21-17.94-517.21-17.24-56.62 36.91-85-29-23-29-8-11 14-27 23-15 7.32-19.81 24-16 34-5-1.19-21.26 15-26 24-17-19-60 114-65 106-18 13-18 82 3 74 35z"/><path class="cloud" d="M1388 205.73c-4-18.3-22-25.3-35.3-13.32 10.34-58-109.66-33-86.32 22.47-2.33-3.85-9.84-3.32-10.62 1.77 7.28-10.22-8.72-29.22-14.5-17.14 22.78-6.08-19.22-41.08-20-20.44 13.81-44.64-113.19-72.64-93.85-1.22-7.08-22.3-21.34-12.42-23-1 23.59-31.42-71.41-70.42-75.41-28.42 27-67-128-49-88 14-3.75-28.05-33.88-4.26-29 11-17.88-6.26-39-12-36.12 4.54-5.88-20.54-33.88 1.46-17.83 11.46-79-6-35 65 20.94 22.11-66.99 28.89 99.01 48.89 57.52 21.59-12.51 16.3 74.56 21.61 86.15 6.21a58.42 58.42 0 0 0 66.53-13.44 23.5 23.5 0 0 0 45.44 4.95 51 51 0 0 0 80.32-2 21.46 21.46 0 0 0 36.43 4.39 13 13 0 0 0 22.39 1.49 45 45 0 0 0 70.74 4.74 28 28 0 0 0 41.93-5.72c3.45 3.51 26.29 11.6 33.56-7.3 5-13.02-23.16-31.21-32-20.72z"/><path class="highlight" d="M2181 193.43c1-4 6.79-8.72 12-1-7.21-59.72 110.3-33.63 103.38 8.73 14.21-12.82 33.62 11.27 25.62 25.27 3.35-1.68 4-4 8.47-3.73-16.78-41 101.44-62.66 96.48-3.87 12.05-15.4 36.05-7.4 34.05 13.6 13-11 35.62 5.81 31.58 18.89-5.87 19-18.78 14.71-32.32 8.35-7.41 6.63-516.29-17.94-517.26-17.24-56.62 36.91-85-29-23-29-8-11 14-27 23-15 7.32-19.81 24-16 34-5-1.19-21.26 15-26 24-17-19-60 114-65 106-18 13-18 82 3 74 35z"/><path class="cloud" d="M2459 237.73c-4-18.3-22-25.3-35.3-13.32 10.34-58-109.66-33-86.32 22.47-2.33-3.85-9.84-3.32-10.62 1.77 7.28-10.22-8.72-29.22-14.5-17.14 22.78-6.08-19.22-41.08-20-20.44 13.81-44.64-113.19-72.64-93.85-1.22-7.08-22.3-21.34-12.42-23.05-1 23.64-31.42-71.36-70.42-75.36-28.42 27-67-128-49-88 14-3.75-28.05-33.88-4.26-29 11-17.88-6.26-39-12-36.12 4.54-5.88-20.54-33.88 1.46-17.83 11.46-79-6-35 65 20.94 22.11-66.94 28.89 99.06 48.89 57.57 21.59-12.51 16.3 74.56 21.61 86.15 6.21a58.42 58.42 0 0 0 66.53-13.44 23.5 23.5 0 0 0 45.44 5 51 51 0 0 0 80.32-2 21.46 21.46 0 0 0 36.43 4.39 13 13 0 0 0 22.39 1.49 45 45 0 0 0 70.74 4.74 28 28 0 0 0 41.93-5.72c3.45 3.51 26.29 11.6 33.56-7.3 4.95-13.07-23.21-31.26-32.05-20.77z"/><path class="highlight" d="M696 162.43c1-4 6.79-8.72 12-1-7.21-59.72 110.3-33.63 103.38 8.73 14.21-12.82 33.62 11.27 25.62 25.27 3.35-1.68 4-4 8.47-3.73-16.78-41 101.44-62.66 96.48-3.87 12-15.4 36-7.4 34 13.6 13-11 35.62 5.81 31.58 18.89-5.87 19-18.78 14.71-32.32 8.35C967.85 235.3 459 210.73 458 211.43c-56.62 36.91-85-29-23-29-8-11 14-27 23-15 7.32-19.81 24-16 34-5-1.19-21.26 15-26 24-17-19-60 114-65 106-18 13-18 82 3 74 35z"/><path class="cloud" d="M974 206.73c-4-18.3-22-25.3-35.3-13.32 10.34-58-109.66-33-86.32 22.47-2.33-3.85-9.84-3.32-10.62 1.77 7.28-10.22-8.72-29.22-14.5-17.14 22.78-6.08-19.22-41.08-20-20.44 13.74-44.64-113.26-72.64-93.92-1.22-7.08-22.3-21.34-12.42-23.05-1C714 146.43 619 107.43 615 149.43c27-67-128-49-88 14-3.75-28.05-33.88-4.26-29 11-17.88-6.26-39-12-36.12 4.54-5.88-20.54-33.88 1.46-17.83 11.46H444c-79-6-35 65 20.94 22.11-66.94 28.89 99.06 48.89 57.57 21.59-12.51 16.3 74.56 21.61 86.15 6.21a58.42 58.42 0 0 0 66.53-13.44 23.5 23.5 0 0 0 45.44 4.95 51 51 0 0 0 80.32-2 21.46 21.46 0 0 0 36.43 4.39 13 13 0 0 0 22.39 1.49 45 45 0 0 0 70.74 4.74 28 28 0 0 0 41.93-5.72c3.45 3.51 26.29 11.6 33.56-7.3 5-13.02-23.16-31.21-32-20.72z"/><path class="highlight" d="M1700.06 189.43c-1-4-6.79-8.72-12-1 7.21-59.72-110.3-33.63-103.38 8.73-14.21-12.82-33.62 11.27-25.62 25.27-3.35-1.68-4-4-8.47-3.73 16.78-41-101.44-62.66-96.48-3.87-12-15.4-36-7.4-34 13.6-13-11-35.62 5.81-31.58 18.89 5.87 19 18.78 14.71 32.32 8.35 7.41 6.63 516.29-17.94 517.26-17.24 56.62 36.91 85-29 23-29 8-11-14-27-23-15-7.32-19.81-24-16-34-5 1.19-21.26-15-26-24-17 19-60-114-65-106-18-13.05-18-82.05 3-74.05 35z"/><path class="cloud" d="M1422.1 233.73c4-18.3 22-25.3 35.3-13.32-10.34-58 109.66-33 86.32 22.47 2.33-3.85 9.84-3.32 10.62 1.77-7.28-10.22 8.72-29.22 14.5-17.14-22.78-6.08 19.22-41.08 20-20.44-13.81-44.64 113.19-72.64 93.85-1.22 7.08-22.3 21.34-12.42 23-1-23.71-31.37 71.29-70.37 75.29-28.37-27-67 128-49 88 14 3.75-28.05 33.88-4.26 29 11 17.88-6.26 39-12 36.12 4.54 5.88-20.54 33.88 1.46 17.83 11.46 79-6 35 65-20.94 22.11 66.94 28.89-99.06 48.89-57.57 21.59 12.51 16.3-74.56 21.61-86.15 6.21a58.42 58.42 0 0 1-66.53-13.44 23.5 23.5 0 0 1-45.44 5 51 51 0 0 1-80.32-2 21.46 21.46 0 0 1-36.43 4.39 13 13 0 0 1-22.39 1.49 45 45 0 0 1-70.74 4.74 28 28 0 0 1-41.93-5.72c-3.45 3.51-26.29 11.6-33.56-7.3-4.87-13.12 23.29-31.31 32.17-20.82z"/><path class="highlight" d="M2208 220.43c27-47-57-71-66.38-34.5 14.39-56-140.62-58.5-121.62.5-3.75-4.73-20.2-1.22-19 12-4.11-5.81-21.37-9.77-22 6 2.27-52.2-106-33-90 10-2 1.52-6 0-3 9-32.64-7.94-31 58 5 31 4.82-3.62 312.05-2 321 1 62 21 33-63-4-35z"/><path class="cloud" d="M2204.27 224c19.73-42.57-58.27-61.57-65.65-29.07 12.38-56.5-128.62-53.5-115.51-1.42-3.76-4.72-21.21-.22-20 13-4.11-5.81-26-3.14-26.61 12.63 2.27-52.2-97.31-30.19-82.9 5.11a9 9 0 0 0-3.56 6.55c-32.64-7.94-37.4 39.47-1 37.63a20 20 0 0 0 14.86-7.18c4.83 19.26 72.09 19.24 79.5-.56a30 30 0 0 0 41.19-5.69c11.8 23.83 95.4 27.64 106.49 8a43.47 43.47 0 0 0 67-7.52c4.25 7.74 12.51 13.77 21.92 13 52.27-4.48 20-68.05-15.73-44.48z"/><path class="highlight" d="M879 220.43c1-4 6.79-8.72 12-1-7.21-59.72 110.3-33.63 103.38 8.73 14.21-12.82 33.62 11.27 25.62 25.27 3.35-1.68 4-4 8.47-3.73-16.78-41 101.44-62.66 96.48-3.87 12-15.4 36-7.4 34 13.6 13-11 35.62 5.81 31.58 18.89-5.87 19-18.78 14.71-32.32 8.35-7.36 6.63-516.21-17.94-517.21-17.24-56.62 36.91-85-29-23-29-8-11 14-27 23-15 7.32-19.81 24-16 34-5-1.19-21.26 15-26 24-17-19-60 114-65 106-18 13-18 82 3 74 35z"/><path class="cloud" d="M1157 264.73c-4-18.3-22-25.3-35.3-13.32 10.34-58-109.66-33-86.32 22.47-2.33-3.85-9.84-3.32-10.62 1.77 7.28-10.22-8.72-29.22-14.5-17.14 22.78-6.08-19.22-41.08-20-20.44 13.81-44.64-113.19-72.64-93.85-1.22-7.08-22.3-21.34-12.42-23.05-1C897 204.43 802 165.43 798 207.43c27-67-128-49-88 14-3.75-28.05-33.88-4.26-29 11-17.88-6.26-39-12-36.12 4.54-5.88-20.54-33.88 1.46-17.83 11.46-79-6-35 65 20.94 22.11-66.99 28.89 99.01 48.89 57.52 21.59-12.51 16.3 74.56 21.61 86.15 6.21a58.42 58.42 0 0 0 66.53-13.44 23.5 23.5 0 0 0 45.44 5 51 51 0 0 0 80.32-2 21.46 21.46 0 0 0 36.43 4.39 13 13 0 0 0 22.39 1.49 45 45 0 0 0 70.74 4.74 28 28 0 0 0 41.93-5.72c3.45 3.51 26.29 11.6 33.56-7.3 5-13.07-23.16-31.26-32-20.77z"/><path class="highlight" d="M39.49 272.81c-44-10.68-14.18-62.4 8.23-42C37.9 201.5 94 180.43 98 213.43c-16-45 91.25-60.22 91-9-1.35-19.55 27-19 26-2 3.94-6.72 1.08-4.92 7-10-10-26 32-38 47-19.75-9-30.25 9.64-47.58 31.18-48.8 15-.85 28.53 8.84 36.82 19.55 8.12-25.5 48.95-21.48 53 6 14.93-11.76 42.48 3.93 36 23 9.12-16.76 37-9 41.58 4.47C443 123.43 602 122.43 584.9 189.28c17.1-21.85 37.85 1.19 27.1 20.15 14.72 1.49 20.91 2.91 27 16.42 7.45-11.35 22.38-13 24.39 2.93 13.22-8.17 31.31 17.24 19.64 29.65-59.03-4-608.03-10-643.54 14.38z"/><path class="cloud" d="M658.47 243.34c1.53-13.91-19.38-15.52-24.23-3a32.5 32.5 0 0 0-30.32-21.93c14.9-14.53-15.08-40.71-23.49-14.73C595 142.43 456 121.43 467.5 194.66c4.5-24.23-44.5-32.23-46.63-11.41 15.13-16.82-19.87-37.82-29.19-22.92a28.5 28.5 0 0 0-51.68-5.87A35.5 35.5 0 0 0 275.51 184c-4.15-7.3-16.68-6.86-18.69.26-.82-22.87-40.82-1.87-26.28 11.49a60.18 60.18 0 0 0-15.42 17.51c-4.06-17.14-25.12-15.87-26.87 1.21C191 165.43 88 176.43 100.67 225.89 96 200.43 41 215.43 54.89 242.15 35 218.43-3 276.43 42.5 283.43c7.54 1.16 14.37-3.8 18.43-9.61a31.47 31.47 0 0 0 44.14 2.95c8.53 20.08 71 23.05 81.4 5.64a19.94 19.94 0 0 0 28.73-8.72c9.58 30.64 93.8 35.74 96.65 9.58a37.48 37.48 0 0 0 57.79-8A32 32 0 0 0 415.5 272c2.5 17.43 61.5 20.43 52.84-5.55-1.34 26 95.31 31.26 106.48-.23a32.49 32.49 0 0 0 55.1 3.62 19.43 19.43 0 0 0 28.55.67 14.48 14.48 0 0 0 5 .92c8 0 16.3-3.66 19.5-11 6.86-15.65-15.64-25.81-24.5-17.09z"/><path class="highlight" d="M1480 249.43c27-47-57-71-66.38-34.5 14.39-56-140.62-58.5-121.62.5-3.75-4.73-20.2-1.22-19 12-4.11-5.81-21.37-9.77-22 6 2.27-52.2-106-33-90 10-2 1.52-6 0-3 9-32.64-7.94-31 58 5 31 4.82-3.62 312-2 321 1 62 21 33-63-4-35z"/><path class="cloud" d="M1476.27 253c19.73-42.57-58.27-61.57-65.65-29.07 12.38-56.5-128.62-53.5-115.51-1.42-3.76-4.72-21.21-.22-20 13-4.11-5.81-26-3.14-26.61 12.63 2.27-52.2-97.31-30.19-82.9 5.11a9 9 0 0 0-3.56 6.55c-32.64-7.94-37.4 39.47-1 37.63a20 20 0 0 0 14.86-7.18c4.83 19.26 72.09 19.24 79.5-.56a30 30 0 0 0 41.19-5.69c11.8 23.83 95.4 27.64 106.49 8a43.47 43.47 0 0 0 67-7.52c4.25 7.74 12.51 13.77 21.92 13 52.27-4.48 20-68.05-15.73-44.48z"/></svg>