<svg xmlns="http://www.w3.org/2000/svg" viewBox="0 0 2318 646"><defs><linearGradient id="a" x2="0" y2="1"><stop offset="0%" stop-color="#94cdf3"/><stop offset="70%" stop-color="#575F7F"/></linearGradient></defs><title>Ocean</title><path class="a" fill="url(#a)" d="M2296.7 0h-1.1c-2.6 6.3-11.9 11-22.9 11s-20.3-4.7-22.9-11h-1.1c-2.6 6.3-11.8 11-22.9 11s-20.3-4.7-22.9-11h-1c-2.6 6.3-11.9 11-22.9 11s-20.4-4.7-22.9-11h-1.1c-2.6 6.3-11.9 11-22.9 11s-20.3-4.7-22.9-11h-1.1c-2.6 6.3-11.8 11-22.9 11s-20.3-4.7-22.9-11h-1.1c-2.5 6.3-11.8 11-22.9 11s-20.3-4.7-22.8-11h-1.1c-2.6 6.3-11.9 11-22.9 11s-20.3-4.7-22.9-11h-1.1c-2.6 6.3-11.8 11-22.9 11s-20.3-4.7-22.9-11h-1.1c-2.5 6.3-11.8 11-22.9 11s-20.3-4.7-22.9-11h-1c-2.6 6.3-11.9 11-22.9 11s-20.4-4.7-22.9-11h-1.1c-2.6 6.3-11.9 11-22.9 11s-20.3-4.7-22.9-11h-1.1c-2.6 6.3-11.8 11-22.9 11s-20.3-4.7-22.9-11h-1.1c-2.5 6.3-11.8 11-22.8 11s-20.4-4.7-22.9-11h-1.1c-2.6 6.3-11.9 11-22.9 11s-20.3-4.7-22.9-11h-1.1c-2.6 6.3-11.8 11-22.9 11s-20.3-4.7-22.9-11h-1.1c-2.5 6.3-11.8 11-22.9 11s-20.3-4.7-22.9-11h-1c-2.6 6.3-11.9 11-22.9 11s-20.4-4.7-22.9-11h-1.1c-2.6 6.3-11.9 11-22.9 11s-20.3-4.7-22.9-11h-1.1c-2.6 6.3-11.8 11-22.9 11s-20.3-4.7-22.9-11h-1.1c-2.5 6.3-11.8 11-22.8 11s-20.4-4.7-22.9-11h-1.1c-2.6 6.3-11.9 11-22.9 11s-20.3-4.7-22.9-11h-1.1c-2.6 6.3-11.8 11-22.9 11s-20.3-4.7-22.9-11h-1.1c-2.5 6.3-11.8 11-22.9 11s-20.3-4.7-22.9-11h-1c-2.6 6.3-11.9 11-22.9 11s-20.3-4.7-22.9-11h-1.1c-2.6 6.3-11.9 11-22.9 11s-20.3-4.7-22.9-11h-1.1c-2.6 6.3-11.8 11-22.9 11s-20.3-4.7-22.9-11h-1.1c-2.5 6.3-11.8 11-22.8 11s-20.4-4.7-22.9-11h-1.1c-2.6 6.3-11.9 11-22.9 11s-20.3-4.7-22.9-11h-1.1c-2.6 6.3-11.8 11-22.9 11S940 6.3 937.4 0h-1.1c-2.5 6.3-11.8 11-22.9 11s-20.3-4.7-22.9-11h-1c-2.6 6.3-11.9 11-22.9 11s-20.3-4.7-22.9-11h-1.1c-2.6 6.3-11.9 11-22.9 11s-20.3-4.7-22.9-11h-1.1c-2.6 6.3-11.8 11-22.9 11s-20.3-4.7-22.9-11h-1C746.3 6.3 737 11 726 11s-20.4-4.7-22.9-11H702c-2.6 6.3-11.9 11-22.9 11s-20.3-4.7-22.9-11h-1.1c-2.6 6.3-11.8 11-22.9 11s-20.3-4.7-22.9-11h-1.1c-2.5 6.3-11.8 11-22.9 11S565 6.3 562.5 0h-1.1c-2.6 6.3-11.9 11-22.9 11s-20.3-4.7-22.9-11h-1.1c-2.6 6.3-11.8 11-22.9 11s-20.3-4.7-22.9-11h-1.1c-2.5 6.3-11.8 11-22.9 11s-20.3-4.7-22.9-11h-1c-2.6 6.3-11.9 11-22.9 11S377.5 6.3 375 0h-1.1C371.3 6.3 362 11 351 11s-20.3-4.7-22.9-11H327c-2.6 6.3-11.8 11-22.9 11s-20.3-4.7-22.9-11h-1.1c-2.5 6.3-11.8 11-22.9 11s-20.3-4.7-22.8-11h-1.1c-2.6 6.3-11.9 11-22.9 11s-20.3-4.7-22.9-11h-1.1c-2.6 6.3-11.8 11-22.9 11s-20.3-4.7-22.9-11h-1.1c-2.5 6.3-11.8 11-22.9 11S96.3 6.3 93.7 0h-1c-2.6 6.3-11.9 11-22.9 11S49.4 6.3 46.9 0h-1.1c-2.6 6.3-11.9 11-22.9 11S2.6 6.3 0 0v646h2318V11c-10.3-.5-18.9-5-21.3-11z"/></svg>