<svg xmlns="http://www.w3.org/2000/svg" viewBox="0 0 213 316"><defs><style>.a{fill:#82cc67}.b{fill:#558744}.c{fill:#5bb371}.d{fill:#736357}</style></defs><title>tree</title><path class="a" d="M11 98l171.5 79.7C241 113 206 34 151.6 9.1S3 10 11 98z"/><path class="b" d="M182.5 177.7L5 88c-20 122 131 155 177.5 89.7z"/><path class="c" d="M186.8 42.3L176 46l6.8-8.3A105.5 105.5 0 0 0 .6 98.2L16 105 .3 102.1c-.2 2.5-.3 4.9-.3 7.4A105.6 105.6 0 0 0 7.6 149l17.4-5-15.2 9.9A103.2 103.2 0 0 0 32 185.1L44 172l-7 17.8a106.6 106.6 0 0 0 29.3 17.7L72 199v10.6a110.6 110.6 0 0 0 23.8 5L100 197l5 18h.5a105.5 105.5 0 0 0 81.3-172.7z"/><path class="d" d="M174.2 130.5c-6 10.2-13.3 15.3-19.1 17.9a4 4 0 0 1-5.4-2.8c-3-13.2-7.8-24.6-14.6-33.1a.9.9 0 0 0-1.7.7c.8 7.9 2.4 30.5-2.9 60.4a4 4 0 0 1-4.8 3.2c-31.4-6.4-39.5-35.4-41.5-48a1 1 0 0 0-1.9 0c-3.3 25.6 19.3 50.1 36.3 61.6a11.5 11.5 0 0 1 4.8 13c-1.8 6.1-4 12.3-6.4 18.6-20.5 53-91.1 74.2-111.2 79.3a.9.9 0 0 0 .2 1.8l111.4 12.8a.8.8 0 0 0 .9-.4c24.4-36.2 39-99.9 34.5-149.4a11.1 11.1 0 0 1 5.5-10.5c6.8-3.9 14.4-11.1 17.6-24.5a.9.9 0 0 0-1.7-.6z"/></svg>